<?xml version="1.0" encoding="utf-8"?>
<svg width="430px" height="303px" viewBox="0 0 430 303" version="1.1" xmlns:xlink="http://www.w3.org/1999/xlink" xmlns="http://www.w3.org/2000/svg">
  <desc>Created with Lunacy</desc>
  <g id="explore-new-car">
    <path d="M373.202 123.576C364.313 137.501 367.104 155.895 379.786 166.5C384.671 170.586 390.541 175.194 397.566 180.298C416.126 193.782 453.189 212.595 409.64 265.669C358.549 327.937 219.255 297.584 122.33 279.262C-28.5678 250.739 -27.3992 121.991 58.273 105.8C126.873 92.8342 167.214 93.7142 187.021 52.4449C232.169 -41.6121 454.564 -3.89022 373.202 123.576" id="Fill-22" fill="#64C8CA" fill-opacity="0.1" stroke="none" />
    <g id="Group-2" transform="translate(97 74)">
      <g id="Group" transform="translate(52 0)">
        <path d="M15.6626 77.662C15.2316 77.74 4.11158 77.709 2.41758 67.571C0.722578 57.433 7.41458 54.087 4.24358 42.952C1.07258 31.816 -4.13442 29.12 5.70558 19.566C5.70558 19.566 10.1356 15.664 9.81158 10.958C9.42258 5.32597 18.3306 -2.31003 25.2546 0.66597C32.1786 3.64097 31.3326 9.59397 26.8746 19.587C22.4166 29.581 27.9596 30.584 29.3806 33.479C30.8026 36.374 33.6496 39.252 28.8276 47.136C24.0056 55.02 31.7936 63.041 27.7786 70.52C27.7786 70.52 24.1446 76.132 15.6626 77.662" transform="translate(0.8374217 61.99703)" id="Fill-27" fill="#96B8F9" stroke="none" />
        <path d="M5.65373 75.8416C5.88173 75.7536 6.00573 75.5026 5.93073 75.2666C-3.61027 44.8336 3.41773 0.98156 3.48873 0.54156C3.53073 0.28856 3.35873 0.0475599 3.10473 0.0065599C2.85073 -0.0364401 2.61073 0.13656 2.56973 0.39056C2.49673 0.83256 -4.56527 44.9046 5.04173 75.5456C5.11773 75.7916 5.37973 75.9276 5.62573 75.8516L5.65373 75.8416" transform="translate(14.39327 79.24544)" id="Fill-28" fill="#3C75AE" stroke="none" />
        <path d="M5.35213 10.8349L5.42513 10.7999C5.64613 10.6679 5.71913 10.3819 5.58713 10.1609C5.55613 10.1079 2.46314 4.89594 0.908135 0.315944C0.825135 0.0729445 0.560135 -0.0580555 0.317135 0.0249445C0.0711356 0.106944 -0.0578644 0.372944 0.0251356 0.615944C1.61214 5.28994 4.75413 10.5849 4.78613 10.6379C4.90413 10.8359 5.14513 10.9139 5.35213 10.8349" transform="translate(10.36386 86.09605)" id="Fill-29" fill="#3C75AE" stroke="none" />
        <path d="M0.633125 7.49853L0.802125 7.38453C2.90413 5.18753 8.33413 0.875526 8.38913 0.832525C8.59013 0.672525 8.62513 0.379525 8.46413 0.177525C8.30513 -0.0244747 8.01213 -0.0604747 7.80913 0.102525C7.58413 0.280525 2.27513 4.49653 0.129125 6.74053C-0.0488754 6.92653 -0.0418754 7.22153 0.144125 7.39953C0.278125 7.52853 0.470125 7.56053 0.633125 7.49853" transform="translate(14.60488 99.03448)" id="Fill-30" fill="#3C75AE" stroke="none" />
        <path d="M4.65266 6.96584L4.74366 6.91884C4.95866 6.77584 5.01666 6.48684 4.87466 6.27184L0.854658 0.208841C0.712658 -0.00515904 0.424658 -0.0651591 0.208658 0.077841C-0.00634187 0.220841 -0.0643419 0.509841 0.0776581 0.724841L4.09766 6.78784C4.22066 6.97284 4.45266 7.04184 4.65266 6.96584" transform="translate(10.34634 108.8892)" id="Fill-31" fill="#3C75AE" stroke="none" />
        <path d="M2.633 0.997999L2.284 0L1.936 0.997999C1.642 1.84 0.943999 2.55 0 2.969C0.943999 3.389 1.642 4.099 1.936 4.941L2.284 5.939L2.633 4.941C2.927 4.099 3.62399 3.389 4.56799 2.969C3.62399 2.55 2.927 1.84 2.633 0.997999" transform="translate(177.566 131.838)" id="Fill-36" fill="#FFFFFE" stroke="none" />
        <path d="M4.415 1.674L3.83 0L3.246 1.674C2.754 3.085 1.584 4.275 0 4.979C1.584 5.682 2.754 6.873 3.246 8.284L3.83 9.958L4.415 8.284C4.907 6.873 6.077 5.682 7.661 4.979C6.077 4.275 4.907 3.085 4.415 1.674" transform="translate(38.682 86.56)" id="Fill-37" fill="#FFFFFE" stroke="none" />
        <path d="M27.219 18.062C28.81 16.149 29.771 13.696 29.771 11.029C29.771 4.963 24.808 0 18.742 0L11.029 0C4.963 0 0 4.963 0 11.029C0 17.094 4.963 22.057 11.029 22.057L18.742 22.057C20.51 22.057 22.177 21.626 23.661 20.879L29.187 23.908L27.219 18.062" transform="translate(7.449 0.922)" id="Fill-38" fill="#3D4387" stroke="none" />
        <path d="M9.562 5.6116C9.54 5.1376 9.131 4.7716 8.656 4.7716L4.249 4.7716C4.249 4.7716 4.471 2.8986 4.415 2.5456C4.36 2.1936 3.562 0.245598 3.562 0.245598C3.562 0.245598 3.34 -0.0884022 2.894 0.0225978C2.449 0.134598 2.394 0.431598 2.394 0.431598L2.486 2.4906C2.282 3.4736 0.557 5.6436 0.557 5.6436L0 6.0706L0 10.8186L0.207 11.1086C0.426 11.4156 0.781 11.5986 1.158 11.5986L7.41 11.5986C7.897 11.5986 8.292 11.2036 8.292 10.7166C8.292 10.3466 8.064 10.0306 7.741 9.8986L7.804 9.8986C8.278 9.8986 8.685 9.5356 8.708 9.0616C8.727 8.6816 8.504 8.3516 8.181 8.2086L8.198 8.2086C8.686 8.2086 9.081 7.8136 9.081 7.3266C9.081 6.9796 8.88 6.6806 8.588 6.5366L8.681 6.5366C9.182 6.5366 9.586 6.1186 9.562 5.6116" transform="translate(20.174 5.182402)" id="Fill-39" fill="#FFFFFE" stroke="none" />
        <path d="M3.664 0L0.778 0C0.349 0 0.001 0.348 0.001 0.777L0 6.562C0 6.992 0.348 7.34 0.778 7.34L3.664 7.34C4.093 7.34 4.441 6.992 4.441 6.563L4.441 0.777C4.441 0.348 4.094 0 3.664 0" transform="translate(14.932 9.79)" id="Fill-40" fill="#FFFFFE" stroke="none" />
        <path d="M65.728 145.238L7.686 145.238C3.441 145.238 0 141.797 0 137.552L0 7.686C0 3.441 3.441 0 7.686 0L65.728 0C69.973 0 73.414 3.441 73.414 7.686L73.414 137.552C73.414 141.797 69.973 145.238 65.728 145.238" transform="translate(53.046 9.461)" id="Fill-41" fill="#B9DAFF" stroke="none" />
        <path d="M56.286 121.001L6.487 121.001C2.905 121.001 0 118.097 0 114.515L0 6.487C0 2.904 2.905 0 6.487 0L56.286 0C59.869 0 62.773 2.904 62.773 6.487L62.773 114.515C62.773 118.097 59.869 121.001 56.286 121.001" transform="translate(58.24 13.806)" id="Fill-42" fill="#FFFFFE" stroke="none" />
        <path d="M12.009 6.263L11.49 6.263C11.489 7.707 10.905 9.01 9.959 9.957C9.012 10.904 7.708 11.488 6.264 11.488C4.819 11.488 3.516 10.904 2.569 9.957C1.623 9.01 1.039 7.707 1.038 6.263C1.039 4.818 1.623 3.515 2.569 2.568C3.516 1.622 4.819 1.038 6.264 1.038C7.708 1.038 9.012 1.622 9.959 2.568C10.905 3.515 11.489 4.818 11.49 6.263L12.528 6.263C12.527 2.803 9.723 0 6.264 0C2.805 0 0.001 2.803 0 6.263C0.001 9.722 2.805 12.526 6.264 12.526C9.723 12.526 12.527 9.722 12.528 6.263L12.009 6.263" transform="translate(83.489 138.883)" id="Fill-43" fill="#7180AF" stroke="none" />
        <path d="M65.567 1.924L0 1.924C0 0.861 0.863 0 1.925 0L63.642 0C64.705 0 65.567 0.861 65.567 1.924" transform="translate(56.843 13.615)" id="Fill-44" fill="#A9AEC7" stroke="none" />
        <path d="M6.311 7.264L4.212 7.264C1.886 7.264 0 5.379 0 3.053L0 0L10.522 0L10.522 3.053C10.522 5.379 8.637 7.264 6.311 7.264" transform="translate(42.048 33.405)" id="Fill-45" fill="#A9AEC7" stroke="none" />
        <path d="M7.129 7.264L4.212 7.264C1.886 7.264 0 5.379 0 3.053L0 0L11.34 0L11.34 3.053C11.34 5.379 9.455 7.264 7.129 7.264" transform="translate(52.57 33.405)" id="Fill-46" fill="#3376F5" stroke="none" />
        <path d="M6.392 7.264L4.212 7.264C1.886 7.264 0 5.379 0 3.053L0 0L10.603 0L10.603 3.053C10.603 5.379 8.718 7.264 6.392 7.264" transform="translate(63.91 33.405)" id="Fill-47" fill="#A9AEC7" stroke="none" />
        <path d="M5.826 7.264L4.212 7.264C1.886 7.264 0 5.379 0 3.053L0 0L10.037 0L10.037 3.053C10.037 5.379 8.152 7.264 5.826 7.264" transform="translate(74.513 33.405)" id="Fill-48" fill="#3376F5" stroke="none" />
        <path d="M14.793 0L0 17.869L47.577 17.869L47.577 0L14.793 0" transform="translate(42.05 15.539)" id="Fill-49" fill="#D1D2E1" stroke="none" />
        <path d="M10.667 0L0 17.867L37.057 17.867L37.057 0L10.667 0" transform="translate(52.57 15.539)" id="Fill-50" fill="#598CED" stroke="none" />
        <path d="M7.01 0L0 17.867L25.716 17.867L25.716 0L7.01 0" transform="translate(63.911 15.539)" id="Fill-51" fill="#D1D2E1" stroke="none" />
        <path d="M3.593 0L0 17.867L15.114 17.867L15.114 0L3.593 0" transform="translate(74.513 15.539)" id="Fill-52" fill="#598CED" stroke="none" />
        <path d="M0 0L0 3.729C0 5.681 2.246 7.263 5.018 7.263L5.133 7.263C7.905 7.263 10.151 5.681 10.151 3.729L10.151 0L0 0" transform="translate(84.551 33.406)" id="Fill-53" fill="#A9AEC7" stroke="none" />
        <path d="M4.211 7.264L6.31 7.264C8.636 7.264 10.522 5.379 10.522 3.053L10.522 0L0 0L0 3.053C0 5.379 1.885 7.264 4.211 7.264" transform="translate(126.683 33.405)" id="Fill-54" fill="#A9AEC7" stroke="none" />
        <path d="M4.211 7.264L7.128 7.264C9.454 7.264 11.34 5.379 11.34 3.053L11.34 0L0 0L0 3.053C0 5.379 1.886 7.264 4.211 7.264" transform="translate(115.343 33.405)" id="Fill-55" fill="#3376F5" stroke="none" />
        <path d="M4.211 7.264L6.391 7.264C8.718 7.264 10.603 5.379 10.603 3.053L10.603 0L0 0L0 3.053C0 5.379 1.886 7.264 4.211 7.264" transform="translate(104.74 33.405)" id="Fill-56" fill="#A9AEC7" stroke="none" />
        <path d="M4.212 7.264L5.825 7.264C8.151 7.264 10.037 5.379 10.037 3.053L10.037 0L0 0L0 3.053C0 5.379 1.886 7.264 4.212 7.264" transform="translate(94.703 33.405)" id="Fill-57" fill="#3376F5" stroke="none" />
        <path d="M32.783 0L0 0L0 17.869L47.576 17.869L32.783 0" transform="translate(89.627 15.539)" id="Fill-58" fill="#D1D2E1" stroke="none" />
        <path d="M26.389 0L0 0L0 17.867L37.056 17.867L26.389 0" transform="translate(89.627 15.539)" id="Fill-59" fill="#598CED" stroke="none" />
        <path d="M0 0L0 17.867L25.715 17.867L18.706 0L0 0" transform="translate(89.627 15.539)" id="Fill-60" fill="#D1D2E1" stroke="none" />
        <path d="M0 0L0 17.867L15.113 17.867L11.52 0L0 0" transform="translate(89.627 15.539)" id="Fill-61" fill="#598CED" stroke="none" />
        <path d="M1.452 0L0 17.867L10.151 17.867L8.7 0L1.452 0" transform="translate(84.551 15.539)" id="Fill-62" fill="#D1D2E1" stroke="none" />
        <path d="M0 1.924L7.632 1.924L7.632 0L0 0L0 1.924Z" transform="translate(63.237 13.615)" id="Fill-63" fill="#3C84B9" stroke="none" />
        <path d="M0 1.924L7.683 1.924L7.683 0L0 0L0 1.924Z" transform="translate(108.333 13.615)" id="Fill-64" fill="#3C84B9" stroke="none" />
        <path d="M0 1.924L7.897 1.924L7.897 0L0 0L0 1.924Z" transform="translate(78.106 13.615)" id="Fill-65" fill="#3C84B9" stroke="none" />
        <path d="M0 1.924L7.896 1.924L7.896 0L0 0L0 1.924Z" transform="translate(93.251 13.615)" id="Fill-66" fill="#3C84B9" stroke="none" />
        <path d="M41.045 39.08L4.32 39.08C1.935 39.08 0 37.146 0 34.76L0 4.319C0 1.933 1.935 0 4.32 0L41.045 0C43.431 0 45.366 1.933 45.366 4.319L45.366 34.76C45.366 37.146 43.431 39.08 41.045 39.08" transform="translate(66.63 80.649)" id="Fill-67" fill="#E0F8FF" stroke="none" />
        <path d="M41.045 18.317L4.32 18.317C1.935 18.317 0 16.384 0 13.998L0 4.319C0 1.934 1.935 0 4.32 0L41.045 0C43.431 0 45.366 1.934 45.366 4.319L45.366 13.998C45.366 16.384 43.431 18.317 41.045 18.317" transform="translate(66.63 53.453)" id="Fill-68" fill="#E0F8FF" stroke="none" />
        <path d="M24.531 1.645L0.823 1.645C0.369 1.645 0 1.277 0 0.822998C0 0.368999 0.369 0 0.823 0L24.531 0C24.986 0 25.354 0.368999 25.354 0.822998C25.354 1.277 24.986 1.645 24.531 1.645" transform="translate(73.651 87.735)" id="Fill-69" fill="#FFFFFF" stroke="none" />
        <path d="M16.751 1.645L0.823 1.645C0.369 1.645 0 1.276 0 0.821998C0 0.367999 0.369 0 0.823 0L16.751 0C17.205 0 17.573 0.367999 17.573 0.821998C17.573 1.276 17.205 1.645 16.751 1.645" transform="translate(73.651 92.974)" id="Fill-70" fill="#FFFFFF" stroke="none" />
        <path d="M2.391 0L3.13 1.497L4.781 1.737L3.586 2.902L3.868 4.547L2.391 3.77L0.913 4.547L1.195 2.902L0 1.737L1.652 1.497L2.391 0" transform="translate(73.651 98.182)" id="Fill-71" fill="#FF4F29" stroke="none" />
        <path d="M2.39 0L3.129 1.497L4.781 1.737L3.586 2.902L3.868 4.547L2.39 3.77L0.913 4.547L1.195 2.902L0 1.737L1.652 1.497L2.39 0" transform="translate(80.287 98.182)" id="Fill-72" fill="#FF4F29" stroke="none" />
        <path d="M2.391 0L3.129 1.497L4.782 1.737L3.586 2.902L3.869 4.547L2.391 3.77L0.913999 4.547L1.196 2.902L0 1.737L1.653 1.497L2.391 0" transform="translate(86.922 98.182)" id="Fill-73" fill="#FF4F29" stroke="none" />
        <path d="M2.391 0L3.129 1.497L4.781 1.737L3.586 2.902L3.868 4.547L2.391 3.77L0.913 4.547L1.196 2.902L0 1.737L1.652 1.497L2.391 0" transform="translate(93.558 98.182)" id="Fill-74" fill="#A7CCD7" stroke="none" />
        <path d="M2.391 0L3.129 1.497L4.78 1.737L3.585 2.902L3.867 4.547L2.391 3.77L0.913 4.547L1.195 2.902L0 1.737L1.651 1.497L2.391 0" transform="translate(100.194 98.182)" id="Fill-75" fill="#A7CCD7" stroke="none" />
        <path d="M20.845 2.198L14.182 8.163L2.754 0L0 2.523L13.608 14.057C14.186 14.675 15.159 14.692 15.759 14.095L23.702 6.955L20.845 2.198" transform="translate(109.231 82.316)" id="Fill-77" fill="#E3AE8E" stroke="none" />
        <path d="M7.171 0.00303618C7.171 0.00303618 6.636 -0.366964 0 7.06204L5.157 13.979L8.161 10.659L7.171 0.00303618" transform="translate(127.91 77.35996)" id="Fill-78" fill="#DB576D" stroke="none" />
        <path d="M0 4.422L7.87 9.4L8.272 26.557L11.638 28.175L13.555 7.74C13.913 6.973 13.567 6.063 12.79 5.728L3.353 0L0 4.422" transform="translate(149.888 80.294)" id="Fill-79" fill="#E3AE8E" stroke="none" />
        <path d="M9.964 0L5.371 1.029C4.145 1.303 3.223 2.315 3.064 3.561L0 29.449L19.074 28.197L20.376 3.798C20.471 2.183 19.262 0.787 17.65 0.65L9.964 0" transform="translate(130.502 76.033)" id="Fill-80" fill="#E26073" stroke="none" />
        <path d="M5.953 7.867L4.534 0L0 0.628L1.685 8.589L5.953 7.867" transform="translate(152.022 158.047)" id="Fill-81" fill="#E3AE8E" stroke="none" />
        <path d="M4.30401 8.382L4.58501 0.145L0 0L0.118 8.209L4.30401 8.382" transform="translate(127.172 157.311)" id="Fill-82" fill="#E3AE8E" stroke="none" />
        <path d="M1.56 1.252L0 8.903L21.636 7.854L20.634 0L1.56 1.252" transform="translate(128.942 104.23)" id="Fill-83" fill="#444287" stroke="none" />
        <path d="M13.929 0L9.066 20.966L7.747 52.94L0.472 52.646L0 20.766L3.747 0.945L13.929 0" transform="translate(125.618 110.149)" id="Fill-84" fill="#444287" stroke="none" />
        <path d="M4.449 4.203L0 0.191L5.582 0L4.449 4.203" transform="translate(133.209 112.656)" id="Fill-85" fill="#423F84" stroke="none" />
        <path d="M9.946 0.881L12.149 21.235L18.57 52.049L11.148 53.662L3.311 22.482L0 0L9.946 0.881" transform="translate(140.499 110.158)" id="Fill-86" fill="#444287" stroke="none" />
        <path d="M8.922 0L13.108 0.173L12.983 6.44899L0 7.16299C0.121 6.182 0.784 5.436 1.712 5.246L8.741 2.817L8.922 0" transform="translate(118.368 165.52)" id="Fill-87" fill="#222731" stroke="none" />
        <path d="M13.013 0L0.03 0.713999L0 1.683L12.983 0.968999L13.013 0" transform="translate(118.338 171.969)" id="Fill-88" fill="#B4B8D2" stroke="none" />
        <path d="M7.03091 0.722L11.2989 0L12.3699 6.183L0.00590785 7.147C-0.0610921 6.159 0.445908 5.287 1.31691 4.903L7.52891 3.52L7.03091 0.722" transform="translate(146.6761 165.914)" id="Fill-89" fill="#222731" stroke="none" />
        <path d="M12.364 0L0 0.963999L0.155 1.92L12.518 0.956999L12.364 0" transform="translate(146.682 172.097)" id="Fill-90" fill="#B4B8D2" stroke="none" />
        <path d="M2.72546 11.365L2.24446 11.343C0.95646 11.283 -0.043539 10.199 0.00146099 8.911L0.310461 0L5.49146 0.239L5.18546 9.096C5.14046 10.405 4.03346 11.426 2.72546 11.365" transform="translate(138.6055 67.803)" id="Fill-91" fill="#DCA382" stroke="none" />
        <path d="M6.33075 13.983L6.12375 13.978C2.66175 13.897 -0.07925 11.024 0.00174997 7.562L0.17975 0L12.9238 0.299L12.7468 7.861C12.6648 11.323 9.79275 14.064 6.33075 13.983" transform="translate(131.8952 61.336)" id="Fill-92" fill="#E3AE8E" stroke="none" />
        <path d="M14.2545 11.6103L12.4375 11.6033C11.9415 11.6013 11.5745 11.1493 11.6705 10.6633C11.9285 9.35435 12.2365 7.10435 11.3875 6.82135C10.1795 6.41835 3.66248 8.02435 1.47048 6.30735C-1.61452 3.89035 0.686481 0.124351 3.49848 0.00335088C6.31148 -0.118649 5.85448 3.13135 9.13248 3.11535C12.4115 3.09835 17.4035 1.90435 15.1405 10.5623L14.2545 11.6103" transform="translate(130.3585 55.83965)" id="Fill-93" fill="#22222F" stroke="none" />
        <path d="M2.84056 3.82341C1.83456 4.28541 0.646566 3.84541 0.183566 2.84041C-0.278433 1.83541 0.161566 0.645408 1.16757 0.183407C2.17256 -0.278593 3.36256 0.162407 3.82456 1.16741C4.28556 2.17241 3.84556 3.36141 2.84056 3.82341" transform="translate(142.8454 65.79359)" id="Fill-94" fill="#E3AE8E" stroke="none" />
        <path d="M0.00271872 0L4.26572 0.281C4.26572 0.281 3.95772 2.159 1.66672 1.845C-0.141281 1.598 0.00271872 0 0.00271872 0" transform="translate(133.2883 70.288)" id="Fill-95" fill="#FFFFFE" stroke="none" />
        <path d="M0 0C0 0 1.033 0.105 9.57201 5.235L5.765 12.892L0.735 10.23L0 0" transform="translate(148.995 76.881)" id="Fill-96" fill="#E26073" stroke="none" />
        <path d="M0 0.075L21.551 0L23.074 15.674C23.074 15.674 1.145 16.672 1.173 16.39C1.202 16.108 0 0.075 0 0.075" transform="translate(147.978 115.027)" id="Fill-97" fill="#38394E" stroke="none" />
        <path d="M2.531 0L0 14.468L3.70399 16.315L2.531 0" transform="translate(145.447 115.102)" id="Fill-98" fill="#262637" stroke="none" />
        <path d="M7.19325 8.00828L7.15825 8.00728C6.97025 7.99528 6.82825 7.83328 6.84125 7.64328C6.84425 7.59928 7.12325 3.20928 5.54925 1.41228C5.15324 0.961281 4.68724 0.723281 4.12124 0.688281C3.59024 0.652281 3.12624 0.823281 2.70524 1.20428C0.880241 2.85528 0.685241 7.68728 0.683241 7.73628C0.676241 7.92328 0.50724 8.08328 0.32924 8.06428C0.14024 8.05828 -0.00676004 7.89928 0.000239968 7.71128C0.00723997 7.50128 0.21024 2.53928 2.24724 0.697281C2.80424 0.192281 3.45124 -0.0387195 4.16424 0.00528051C4.91124 0.0532805 5.55025 0.375281 6.06325 0.962281C7.82525 2.97228 7.53625 7.49928 7.52325 7.69128C7.51125 7.86728 7.36625 8.00328 7.19325 8.00828" transform="translate(155.3988 109.8627)" id="Fill-99" fill="#FFFFFE" stroke="none" />
        <path d="M0.00187456 3.20881C0.0598746 4.92181 1.49587 6.26281 3.20887 6.20381C4.92187 6.14481 6.26087 4.70881 6.20287 2.99681C6.14387 1.28481 4.70887 -0.0561873 2.99587 0.00181269C1.28387 0.0608127 -0.0571254 1.49781 0.00187456 3.20881" transform="translate(106.4551 81.03619)" id="Fill-100" fill="#E3AE8E" stroke="none" />
        <path d="M5.78582 3.69283L1.22783 0.159827C0.894826 -0.098173 0.416827 -0.037173 0.159827 0.294827C-0.0981729 0.626827 -0.037173 1.10483 0.294827 1.36283L4.85382 4.89583C5.18582 5.15383 5.66382 5.09283 5.92082 4.76083C6.17882 4.42883 6.11782 3.95083 5.78582 3.69283" transform="translate(106.2482 78.65118)" id="Fill-101" fill="#E3AE8E" stroke="none" />
        <path d="M0.00189784 3.39202C0.0648978 5.20302 1.5829 6.62002 3.3939 6.55902C5.20389 6.49602 6.62089 4.97802 6.55889 3.16802C6.49689 1.35702 4.97889 -0.0609795 3.1679 0.00202055C1.3579 0.0630206 -0.0591021 1.58202 0.00189784 3.39202" transform="translate(156.2261 106.225)" id="Fill-102" fill="#E3AE8E" stroke="none" />
        <path d="M32.095 1.152L0.575 1.152C0.257 1.152 0 0.894 0 0.576C0 0.257 0.257 0 0.575 0L32.095 0C32.413 0 32.671 0.257 32.671 0.576C32.671 0.894 32.413 1.152 32.095 1.152" transform="translate(72.069 57.87)" id="Fill-103" fill="#FFFFFF" stroke="none" />
        <path d="M20.077 1.151L0.575 1.151C0.257 1.151 0 0.894001 0 0.576C0 0.257 0.257 0 0.575 0L20.077 0C20.396 0 20.653 0.257 20.653 0.576C20.653 0.894001 20.396 1.151 20.077 1.151" transform="translate(72.069 66.053)" id="Fill-104" fill="#FFFFFF" stroke="none" />
        <path d="M14.406 1.152L0.575 1.152C0.257 1.152 0 0.894 0 0.575C0 0.257 0.257 0 0.575 0L14.406 0C14.725 0 14.982 0.257 14.982 0.575C14.982 0.894 14.725 1.152 14.406 1.152" transform="translate(72.069 61.86)" id="Fill-105" fill="#FFFFFF" stroke="none" />
      </g>
      <g id="automobile" transform="translate(0 141)">
        <path d="M118.757 20.3586C114.725 17.9095 101.722 14.778 83.4734 14.778L73.834 3.68607C71.801 1.34667 68.8328 0 65.7089 0L36.8551 0C33.7894 0 30.825 1.08169 28.4974 3.04944L17.1225 12.6667L4.98988 14.3762C3.26694 14.619 1.86478 15.8664 1.44265 17.5318L0 23.2222L32.1057 38L122 38L122 26.0655C122 23.7316 120.771 21.5829 118.757 20.3586Z" id="Path" fill="#FFB47D" stroke="none" />
        <path d="M122 8.40009C122 4.20005 115.579 0 85.6141 0L2.14022 0C0.958213 0 0 0.940401 0 2.09991L0 14.7L40.6671 21L122 21L122 8.40009L122 8.40009Z" transform="translate(0 19)" id="Path" fill="#FF9164" stroke="none" />
        <path d="M121.863 4.49919L21.6141 4.49919L2.60234 0.0524245C1.46042 -0.211429 0.307848 0.545716 0.0508864 1.76097C-0.203895 2.97419 0.522911 4.17619 1.67524 4.4454L20.9163 8.94621C21.0687 8.98241 21.2232 9 21.3797 9L121.862 9C123.044 9 124 7.99226 124 6.74972C124 5.50693 123.044 4.49919 121.863 4.49919Z" transform="translate(0 32)" id="Path" fill="#FF7D5A" stroke="none" />
        <path d="M10.5 21C16.299 21 21 16.299 21 10.5C21 4.70101 16.299 0 10.5 0C4.70101 0 0 4.70101 0 10.5C0 16.299 4.70101 21 10.5 21Z" transform="translate(92 26)" id="Oval" fill="#EDEDEE" stroke="none" />
        <path d="M13 26C5.83128 26 0 20.1687 0 13C0 5.83128 5.83128 0 13 0C20.1687 0 26 5.83128 26 13C26 20.1687 20.1687 26 13 26ZM13 4.33333C8.22045 4.33333 4.33333 8.22045 4.33333 13C4.33333 17.7796 8.22045 21.6667 13 21.6667C17.7796 21.6667 21.6667 17.7798 21.6667 13C21.6667 8.22045 17.7798 4.33333 13 4.33333Z" transform="translate(90 23)" id="Shape" fill="#504B5A" stroke="none" />
        <path d="M4.5 9C6.98528 9 9 6.98528 9 4.5C9 2.01472 6.98528 0 4.5 0C2.01472 0 0 2.01472 0 4.5C0 6.98528 2.01472 9 4.5 9Z" transform="translate(98 32)" id="Oval" fill="#DCDBDE" stroke="none" />
        <path d="M10.5 21C16.299 21 21 16.299 21 10.5C21 4.70101 16.299 0 10.5 0C4.70101 0 0 4.70101 0 10.5C0 16.299 4.70101 21 10.5 21Z" transform="translate(11 26)" id="Oval" fill="#EDEDEE" stroke="none" />
        <path d="M13 26C5.83128 26 0 20.1687 0 13C0 5.83128 5.83128 0 13 0C20.1687 0 26 5.83128 26 13C25.9998 20.1687 20.1685 26 13 26ZM13 4.33333C8.22045 4.33333 4.33333 8.22045 4.33333 13C4.33333 17.7796 8.22045 21.6667 13 21.6667C17.7796 21.6667 21.6667 17.7798 21.6667 13C21.6667 8.22045 17.7796 4.33333 13 4.33333Z" transform="translate(9 23)" id="Shape" fill="#504B5A" stroke="none" />
        <path d="M4.5 9C6.98528 9 9 6.98528 9 4.5C9 2.01472 6.98528 0 4.5 0C2.01472 0 0 2.01472 0 4.5C0 6.98528 2.01472 9 4.5 9Z" transform="translate(17 32)" id="Oval" fill="#DCDBDE" stroke="none" />
        <g id="Group" transform="translate(38 28)">
          <path d="M47.1795 3.92311L2.14441 3.92311C0.96009 3.92311 0 3.04467 0 1.96156L0 1.96156C0 0.878222 0.960333 0 2.14441 0L47.1795 0C48.3638 0 49.3239 0.878222 49.3239 1.96156L49.3239 1.96156C49.3242 3.04511 48.3638 3.92311 47.1795 3.92311Z" transform="translate(0.218887 0.05377778)" id="Path" fill="#FF7D5A" stroke="none" />
          <path d="M4.28907 3.92311L2.14465 3.92311C0.960333 3.92311 0 3.04467 0 1.96156L0 1.96156C0 0.878222 0.960333 0 2.14465 0L4.28907 0C5.47339 0 6.43348 0.878222 6.43348 1.96156L6.43348 1.96156C6.43348 3.04511 5.47339 3.92311 4.28907 3.92311Z" transform="translate(79.56652 0.05377778)" id="Path" fill="#FF7D5A" stroke="none" />
        </g>
        <path d="M0 12.857L11.3147 3.09525C13.6301 1.09794 16.5787 0 19.6282 0L48.3294 0C51.437 0 54.3891 1.36666 56.4116 3.74144L66 15L15.5928 15C13.7164 15 11.8434 14.8439 9.99235 14.5334L0 12.857Z" transform="translate(17 -5.684342E-14)" id="Path" fill="#FF9164" stroke="none" />
        <path d="M32.9115 1.5591C32.1099 0.571162 30.9224 0 29.67 0L10.1864 0C9.0674 0 7.99408 0.456537 7.20301 1.26922L0.873998 7.76922C0.314515 8.34382 0 9.12312 0 9.93581L0 9.93581C0 11.6279 1.33573 13 2.98359 13L39.9432 13C40.8375 13 41.326 11.9286 40.7536 11.2229L32.9115 1.5591Z" transform="translate(30 2)" id="Path" fill="#625D6B" stroke="none" />
        <path d="M6.75013 13L0 13L4.5 0L9 0L6.75013 13Z" transform="translate(38 2)" id="Path" fill="#504B5A" stroke="none" />
        <path d="M3.91168 0L2.03013 0C0.908924 0 0 0.895434 0 2C0 3.10457 0.909154 4 2.03013 4L6 4C5.82383 2.44455 5.08855 1.03727 3.91168 0Z" transform="translate(116 21)" id="Path" fill="#EDEDEE" stroke="none" />
        <path d="M6.30648 1.61623C5.79077 1.01048 5.21411 0.470264 4.59088 0L1.07824 0C0.165824 0 -0.332568 1.0711 0.251409 1.77699L8.25225 11.441C9.07006 12.4289 10.2817 13 11.5591 13L16 13L6.30648 1.61623Z" transform="translate(68 2)" id="Path" fill="#625D6B" stroke="none" />
        <path d="M0 2L0 4L4.00008 4C5.1046 4 6 3.10457 6 2C6 0.895434 5.10437 4.29789e-08 4.00008 4.29789e-08L1.99992 4.29789e-08C0.895174 -0.000226535 0 0.895434 0 2Z" transform="translate(0 19)" id="Path" fill="#FF6464" stroke="none" />
      </g>
    </g>
  </g>
</svg>